<?xml version="1.0" encoding="UTF-8" standalone="no"?>
<!-- Created with Inkscape (http://www.inkscape.org/) -->

<svg
   xmlns:dc="http://purl.org/dc/elements/1.1/"
   xmlns:cc="http://creativecommons.org/ns#"
   xmlns:rdf="http://www.w3.org/1999/02/22-rdf-syntax-ns#"
   xmlns:svg="http://www.w3.org/2000/svg"
   xmlns="http://www.w3.org/2000/svg"
   xmlns:sodipodi="http://sodipodi.sourceforge.net/DTD/sodipodi-0.dtd"
   xmlns:inkscape="http://www.inkscape.org/namespaces/inkscape"
   width="85.283203pt"
   height="16.38867pt"
   id="svg2"
   sodipodi:version="0.32"
   inkscape:version="0.92.2 2405546, 2018-03-11"
   version="1.0"
   sodipodi:docname="emulab-name-only.svg"
   inkscape:export-filename="/home/ricci/www/emulab.png"
   inkscape:export-xdpi="90"
   inkscape:export-ydpi="90">
  <defs
     id="defs4">
    <inkscape:perspective
       sodipodi:type="inkscape:persp3d"
       inkscape:vp_x="0 : 69.333333 : 1"
       inkscape:vp_y="0 : 1066.6667 : 0"
       inkscape:vp_z="129.6 : 69.333333 : 1"
       inkscape:persp3d-origin="64.8 : 46.222222 : 1"
       id="perspective57" />
  </defs>
  <sodipodi:namedview
     id="base"
     pagecolor="#ffffff"
     bordercolor="#666666"
     borderopacity="1.0"
     inkscape:pageopacity="0.0"
     inkscape:pageshadow="2"
     inkscape:zoom="5.1538462"
     inkscape:cx="55.886719"
     inkscape:cy="42.497919"
     inkscape:document-units="px"
     inkscape:current-layer="layer3"
     inkscape:window-width="1914"
     inkscape:window-height="2072"
     inkscape:window-x="5760"
     inkscape:window-y="40"
     showgrid="false"
     inkscape:window-maximized="0"
     fit-margin-top="0"
     fit-margin-left="0"
     fit-margin-right="0"
     fit-margin-bottom="0" />
  <metadata
     id="metadata7">
    <rdf:RDF>
      <cc:Work
         rdf:about="">
        <dc:format>image/svg+xml</dc:format>
        <dc:type
           rdf:resource="http://purl.org/dc/dcmitype/StillImage" />
        <dc:title></dc:title>
        <dc:date>3/27/06</dc:date>
        <dc:creator>
          <cc:Agent>
            <dc:title>Robert Ricci</dc:title>
          </cc:Agent>
        </dc:creator>
        <dc:rights>
          <cc:Agent>
            <dc:title>University of Utah, School of Computing, Flux Group</dc:title>
          </cc:Agent>
        </dc:rights>
      </cc:Work>
    </rdf:RDF>
  </metadata>
  <g
     inkscape:groupmode="layer"
     id="layer3"
     inkscape:label="Text"
     style="display:inline"
     transform="translate(-4.8632812,-102.07422)">
    <g
       style="font-style:normal;font-variant:normal;font-weight:normal;font-stretch:normal;font-size:32px;line-height:125%;font-family:Emblem;text-align:start;writing-mode:lr-tb;text-anchor:start;fill:#000000;fill-opacity:1;stroke:none"
       id="text3315">
      <path
         d="M 22.394531,116.47266 H 8.8007813 c -5.3e-6,1.21354 0.5104109,2.23698 1.5312497,3.07031 1.005201,0.83334 2.158846,1.25 3.460938,1.25 1.874988,0 3.453111,-0.85416 4.734375,-2.5625 l 2.976562,1.66406 c -0.984392,1.26042 -2.138036,2.24219 -3.460937,2.94531 -1.32293,0.72396 -2.708345,1.08594 -4.15625,1.08594 -2.729174,0 -4.9479223,-0.89583 -6.6562503,-2.6875 -1.578127,-1.66145 -2.3671887,-3.66666 -2.3671875,-6.01562 -1.2e-6,-2.32291 0.7890605,-4.3177 2.3671875,-5.98438 1.708328,-1.81248 3.9270763,-2.71873 6.6562503,-2.71875 2.026029,2e-5 3.872381,0.737 5.539062,2.21094 1.979149,1.77085 2.968731,4.12761 2.96875,7.07031 v 0.67188 m -4.125,-2.94532 c -0.385431,-1.2604 -0.992201,-2.21873 -1.820312,-2.875 -0.854179,-0.64061 -1.856782,-0.96092 -3.007813,-0.96093 -1.135425,10e-6 -2.117195,0.33074 -2.945312,0.99218 -0.854173,0.68231 -1.4192766,1.63022 -1.6953127,2.84375 h 9.4687497"
         id="path2864"
         inkscape:connector-curvature="0" />
      <path
         d="m 47.707031,123.48047 h -3.515625 v -10.30469 c -2e-5,-0.95832 -0.257833,-1.71613 -0.773437,-2.27344 -0.510436,-0.55207 -1.148456,-0.82811 -1.914063,-0.82812 -0.89585,1e-5 -1.611995,0.28647 -2.148437,0.85937 -0.531265,0.57814 -0.79689,1.48699 -0.796875,2.72657 v 9.82031 h -3.523438 v -9.82031 c -1.1e-5,-1.21874 -0.265636,-2.1276 -0.796875,-2.72657 -0.536468,-0.5729 -1.252613,-0.85936 -2.148437,-0.85937 -0.765633,1e-5 -1.406257,0.27866 -1.921875,0.83594 -0.510423,0.55209 -0.765631,1.3073 -0.765625,2.26562 v 10.30469 h -3.515625 v -10.33594 c -2e-6,-2.04686 0.575518,-3.66926 1.726562,-4.86719 1.130203,-1.17185 2.549473,-1.75779 4.257813,-1.75781 1.234365,2e-5 2.278635,0.25523 3.132812,0.76563 0.833321,0.53647 1.419258,1.26303 1.757813,2.17968 0.36457,-0.87498 0.984361,-1.58852 1.859375,-2.14062 0.874984,-0.53644 1.908837,-0.80467 3.101562,-0.80469 1.68748,2e-5 3.085917,0.57554 4.195313,1.72656 1.192685,1.2396 1.789038,2.87241 1.789062,4.89844 v 10.33594"
         id="path2866"
         inkscape:connector-curvature="0" />
      <path
         d="m 67.144531,116.53516 c -1.7e-5,2.23958 -0.757829,4.05208 -2.273437,5.4375 -1.411472,1.30208 -3.151054,1.95312 -5.21875,1.95312 -2.046883,0 -3.773444,-0.65104 -5.179688,-1.95312 -1.515628,-1.38542 -2.273439,-3.19792 -2.273437,-5.4375 v -9.57032 h 3.515625 v 9.25 c -6e-6,1.19793 0.382806,2.19272 1.148437,2.98438 0.770826,0.78646 1.700512,1.17969 2.789063,1.17969 1.130197,0 2.080717,-0.39583 2.851562,-1.1875 0.744779,-0.76562 1.117174,-1.75781 1.117188,-2.97657 v -9.25 h 3.523437 v 9.57032"
         id="path2868"
         inkscape:connector-curvature="0" />
      <path
         d="m 78.542969,121.11328 -1.53125,2.8125 c -1.942714,-0.91666 -3.276046,-1.77864 -4,-2.58594 -0.875003,-0.96353 -1.312503,-2.2552 -1.3125,-3.875 v -15.39062 h 3.515625 v 14.75 c -6e-6,0.91667 0.106765,1.59896 0.320312,2.04687 0.192702,0.44792 0.567702,0.83334 1.125,1.15625 l 1.882813,1.08594"
         id="path2870"
         inkscape:connector-curvature="0" />
      <path
         d="m 96.667969,123.48047 h -3.515625 v -2.01563 c -0.598973,0.76563 -1.367201,1.36198 -2.304688,1.78907 -0.958345,0.44791 -2.002615,0.67187 -3.132812,0.67187 -2.541674,0 -4.622401,-0.91666 -6.242188,-2.75 -1.494793,-1.68229 -2.242188,-3.66666 -2.242187,-5.95312 -10e-7,-2.21874 0.768227,-4.17968 2.304687,-5.88282 1.687495,-1.88019 3.799472,-2.82029 6.335938,-2.82031 1.171864,2e-5 2.216134,0.22398 3.132812,0.67188 0.89582,0.44793 1.591132,1.04689 2.085938,1.79687 l 0.0625,-2.02344 h 3.515625 v 16.51563 m -3.390625,-8.25781 c -1.5e-5,-1.46874 -0.502619,-2.72656 -1.507813,-3.77344 -1.000012,-1.04686 -2.203136,-1.5703 -3.609375,-1.57031 -1.453133,10e-6 -2.679695,0.51303 -3.679687,1.53906 -1.026047,1.04688 -1.539067,2.31511 -1.539063,3.80469 -4e-6,1.47396 0.513016,2.73438 1.539063,3.78125 1.020826,1.04167 2.247387,1.5625 3.679687,1.5625 1.385406,0 2.591134,-0.52083 3.617188,-1.5625 0.999985,-1.02604 1.499985,-2.28646 1.5,-3.78125"
         id="path2872"
         inkscape:connector-curvature="0" />
      <path
         d="m 118.57422,115.22266 c -2e-5,2.64584 -0.88544,4.79167 -2.65625,6.4375 -1.61981,1.51041 -3.57033,2.26562 -5.85156,2.26562 -1.15626,0 -2.22397,-0.23437 -3.20313,-0.70312 -1.00521,-0.44792 -1.72136,-1.03386 -2.14844,-1.75782 l -0.0625,2.01563 h -3.51562 v -21.40625 h 3.51562 v 6.91406 c 0.44791,-0.68748 1.18489,-1.27602 2.21094,-1.76562 1.02603,-0.46874 2.09374,-0.70311 3.20313,-0.70313 2.28123,2e-5 4.23175,0.75783 5.85156,2.27344 1.77081,1.64064 2.65623,3.78386 2.65625,6.42969 m -3.71094,0 c -1e-5,-1.53645 -0.47918,-2.8151 -1.4375,-3.83594 -0.98439,-1.0052 -2.21095,-1.5078 -3.67969,-1.50781 -1.47396,10e-6 -2.69011,0.50261 -3.64843,1.50781 -0.96355,1.00001 -1.44532,2.27865 -1.44532,3.83594 0,1.51563 0.48177,2.78646 1.44532,3.8125 0.95832,1.02083 2.17447,1.53125 3.64843,1.53125 1.46874,0 2.6953,-0.51042 3.67969,-1.53125 0.95832,-1.00521 1.43749,-2.27604 1.4375,-3.8125"
         id="path2874"
         inkscape:connector-curvature="0" />
    </g>
  </g>
  <g
     inkscape:label="Logo"
     inkscape:groupmode="layer"
     id="layer1"
     transform="translate(-4.8632812,-102.07422)" />
</svg>
