<?xml version="1.0" encoding="utf-8"?>
<!-- Generator: Adobe Illustrator 20.0.0, SVG Export Plug-In . SVG Version: 6.00 Build 0)  -->
<svg version="1.1"
	 id="svg2" xmlns:cc="http://creativecommons.org/ns#" xmlns:dc="http://purl.org/dc/elements/1.1/" xmlns:rdf="http://www.w3.org/1999/02/22-rdf-syntax-ns#" xmlns:svg="http://www.w3.org/2000/svg"
	 xmlns="http://www.w3.org/2000/svg" xmlns:xlink="http://www.w3.org/1999/xlink" x="0px" y="0px" viewBox="0 0 73.2 71.9"
	 style="enable-background:new 0 0 73.2 71.9;" xml:space="preserve">
<style type="text/css">
	.st0{fill:#CCFDD1;stroke:#000000;stroke-width:1.3111;stroke-linejoin:round;}
	.st1{fill:#1BE12D;stroke:#000000;stroke-width:1.3111;stroke-linejoin:round;}
	.st2{fill:none;stroke:#000000;stroke-width:1.5;}
	.st3{fill:#F8B9B9;stroke:#000000;stroke-width:1.3111;stroke-linejoin:round;}
	.st4{fill:#E21A1A;stroke:#000000;stroke-width:1.3111;stroke-linejoin:round;}
	.st5{fill:#A5BFFF;stroke:#000000;stroke-width:1.3111;stroke-linejoin:round;}
	.st6{fill:#1930E3;stroke:#000000;stroke-width:1.3111;stroke-linejoin:round;}
</style>
<g id="layer1" transform="translate(8.0449154,-3.5159479)">
	<g id="g3266" transform="matrix(0.8,0,0,0.8,21.476119,0.7619092)">
		<g id="g3182">
			<path id="path1394" class="st0" d="M28.3,10.8c0,3.5-2.8,6.3-6.3,6.3c-3.5,0-6.3-2.8-6.3-6.3c0,0,0,0,0,0c0-3.5,2.8-6.3,6.3-6.3
				C25.5,4.4,28.3,7.3,28.3,10.8C28.3,10.7,28.3,10.7,28.3,10.8z"/>
			<path id="path2278" class="st0" d="M45.5,11.5c0,3.5-2.8,6.3-6.3,6.3c-3.5,0-6.3-2.8-6.3-6.3c0,0,0,0,0,0c0-3.5,2.8-6.3,6.3-6.3
				C42.7,5.2,45.5,8,45.5,11.5C45.5,11.5,45.5,11.5,45.5,11.5z"/>
			<path id="path2280" class="st0" d="M54.6,26.3c0,3.5-2.8,6.3-6.3,6.3c-3.5,0-6.3-2.8-6.3-6.3c0,0,0,0,0,0c0-3.5,2.8-6.3,6.3-6.3
				C51.8,19.9,54.6,22.8,54.6,26.3C54.6,26.3,54.6,26.3,54.6,26.3z"/>
			<path id="path2282" class="st0" d="M46.3,41.4c0,3.5-2.8,6.3-6.3,6.3c-3.5,0-6.3-2.8-6.3-6.3c0,0,0,0,0,0c0-3.5,2.8-6.3,6.3-6.3
				C43.5,35.1,46.3,37.9,46.3,41.4C46.3,41.4,46.3,41.4,46.3,41.4z"/>
			<path id="path2284" class="st0" d="M28.7,41c0,3.5-2.8,6.3-6.3,6.3s-6.3-2.8-6.3-6.3c0,0,0,0,0,0c0-3.5,2.8-6.3,6.3-6.3
				S28.7,37.5,28.7,41C28.7,41,28.7,41,28.7,41z"/>
			<path id="path2286" class="st0" d="M19.1,26c0,3.5-2.8,6.3-6.3,6.3S6.5,29.5,6.5,26c0,0,0,0,0,0c0-3.5,2.8-6.3,6.3-6.3
				C16.3,19.7,19.1,22.5,19.1,26C19.1,26,19.1,26,19.1,26z"/>
			<path id="path2288" class="st1" d="M36.6,26c0,3.5-2.8,6.3-6.3,6.3s-6.3-2.8-6.3-6.3c0,0,0,0,0,0c0-3.5,2.8-6.3,6.3-6.3
				C33.7,19.7,36.6,22.5,36.6,26C36.6,26,36.6,26,36.6,26z"/>
			<path id="path3164" class="st2" d="M25.2,16.3l2.1,4.3"/>
			<path id="path3166" class="st2" d="M36.2,16.9l-2.7,3.8"/>
			<path id="path3168" class="st2" d="M41.7,26.5h-5.1"/>
			<path id="path3170" class="st2" d="M36.6,36.1l-3-4.5"/>
			<path id="path3172" class="st2" d="M24.9,35.5l2.7-3.9"/>
			<path id="path3174" class="st2" d="M18.9,26.6h5.1"/>
		</g>
		<g id="g3197" transform="translate(-8.144354,45.63475)">
			<path id="path3199" class="st3" d="M28.3,10.8c0,3.5-2.8,6.3-6.3,6.3s-6.3-2.8-6.3-6.3c0,0,0,0,0,0c0-3.5,2.8-6.3,6.3-6.3
				C25.5,4.4,28.3,7.3,28.3,10.8C28.3,10.7,28.3,10.7,28.3,10.8z"/>
			<path id="path3201" class="st3" d="M45.5,11.5c0,3.5-2.8,6.3-6.3,6.3c-3.5,0-6.3-2.8-6.3-6.3c0,0,0,0,0,0c0-3.5,2.8-6.3,6.3-6.3
				C42.7,5.2,45.5,8,45.5,11.5C45.5,11.5,45.5,11.5,45.5,11.5z"/>
			<path id="path3203" class="st3" d="M54.6,26.3c0,3.5-2.8,6.3-6.3,6.3c-3.5,0-6.3-2.8-6.3-6.3c0,0,0,0,0,0c0-3.5,2.8-6.3,6.3-6.3
				S54.6,22.8,54.6,26.3C54.6,26.3,54.6,26.3,54.6,26.3z"/>
			<path id="path3205" class="st3" d="M46.3,41.4c0,3.5-2.8,6.3-6.3,6.3c-3.5,0-6.3-2.8-6.3-6.3c0,0,0,0,0,0c0-3.5,2.8-6.3,6.3-6.3
				S46.3,37.9,46.3,41.4C46.3,41.4,46.3,41.4,46.3,41.4z"/>
			<path id="path3207" class="st3" d="M28.7,41c0,3.5-2.8,6.3-6.3,6.3s-6.3-2.8-6.3-6.3c0,0,0,0,0,0c0-3.5,2.8-6.3,6.3-6.3
				S28.7,37.5,28.7,41C28.7,41,28.7,41,28.7,41z"/>
			<path id="path3209" class="st3" d="M19.1,26c0,3.5-2.8,6.3-6.3,6.3S6.5,29.5,6.5,26c0,0,0,0,0,0c0-3.5,2.8-6.3,6.3-6.3
				S19.1,22.5,19.1,26C19.1,26,19.1,26,19.1,26z"/>
			<path id="path3211" class="st4" d="M36.6,26c0,3.5-2.8,6.3-6.3,6.3s-6.3-2.8-6.3-6.3c0,0,0,0,0,0c0-3.5,2.8-6.3,6.3-6.3
				S36.6,22.5,36.6,26C36.6,26,36.6,26,36.6,26z"/>
			<path id="path3213" class="st2" d="M25.2,16.3l2.1,4.3"/>
			<path id="path3215" class="st2" d="M36.2,16.9l-2.7,3.8"/>
			<path id="path3217" class="st2" d="M41.7,26.5h-5.1"/>
			<path id="path3219" class="st2" d="M36.6,36.1l-3-4.5"/>
			<path id="path3221" class="st2" d="M24.9,35.5l2.7-3.9"/>
			<path id="path3223" class="st2" d="M18.9,26.6h5.1"/>
		</g>
		<g id="g3225" transform="translate(-43.41543,14.17606)">
			<path id="path3227" class="st5" d="M28.3,10.8c0,3.5-2.8,6.3-6.3,6.3c-3.5,0-6.3-2.8-6.3-6.3c0,0,0,0,0,0c0-3.5,2.8-6.3,6.3-6.3
				C25.5,4.4,28.3,7.3,28.3,10.8C28.3,10.7,28.3,10.7,28.3,10.8z"/>
			<path id="path3229" class="st5" d="M45.5,11.5c0,3.5-2.8,6.3-6.3,6.3c-3.5,0-6.3-2.8-6.3-6.3c0,0,0,0,0,0c0-3.5,2.8-6.3,6.3-6.3
				C42.7,5.2,45.5,8,45.5,11.5C45.5,11.5,45.5,11.5,45.5,11.5z"/>
			<path id="path3231" class="st5" d="M54.6,26.3c0,3.5-2.8,6.3-6.3,6.3c-3.5,0-6.3-2.8-6.3-6.3c0,0,0,0,0,0c0-3.5,2.8-6.3,6.3-6.3
				C51.8,19.9,54.6,22.8,54.6,26.3C54.6,26.3,54.6,26.3,54.6,26.3z"/>
			<path id="path3233" class="st5" d="M46.3,41.4c0,3.5-2.8,6.3-6.3,6.3c-3.5,0-6.3-2.8-6.3-6.3c0,0,0,0,0,0c0-3.5,2.8-6.3,6.3-6.3
				C43.5,35.1,46.3,37.9,46.3,41.4C46.3,41.4,46.3,41.4,46.3,41.4z"/>
			<path id="path3235" class="st5" d="M28.7,41c0,3.5-2.8,6.3-6.3,6.3s-6.3-2.8-6.3-6.3c0,0,0,0,0,0c0-3.5,2.8-6.3,6.3-6.3
				S28.7,37.5,28.7,41C28.7,41,28.7,41,28.7,41z"/>
			<path id="path3237" class="st5" d="M19.1,26c0,3.5-2.8,6.3-6.3,6.3S6.5,29.5,6.5,26c0,0,0,0,0,0c0-3.5,2.8-6.3,6.3-6.3
				C16.3,19.7,19.1,22.5,19.1,26C19.1,26,19.1,26,19.1,26z"/>
			<path id="path3239" class="st6" d="M36.6,26c0,3.5-2.8,6.3-6.3,6.3s-6.3-2.8-6.3-6.3c0,0,0,0,0,0c0-3.5,2.8-6.3,6.3-6.3
				C33.7,19.7,36.6,22.5,36.6,26C36.6,26,36.6,26,36.6,26z"/>
			<path id="path3241" class="st2" d="M25.2,16.3l2.1,4.3"/>
			<path id="path3243" class="st2" d="M36.2,16.9l-2.7,3.8"/>
			<path id="path3245" class="st2" d="M41.7,26.5h-5.1"/>
			<path id="path3247" class="st2" d="M36.6,36.1l-3-4.5"/>
			<path id="path3249" class="st2" d="M24.9,35.5l2.7-3.9"/>
			<path id="path3251" class="st2" d="M18.9,26.6h5.1"/>
		</g>
		<g id="g3261">
			<path id="path3255" class="st2" d="M2,65.9l-2.5-4.7"/>
			<path id="path3257" class="st2" d="M28.2,51.5l-3-4.8"/>
			<path id="path3259" class="st2" d="M9.5,31.4L7.9,35"/>
		</g>
	</g>
</g>
</svg>
